<svg width="176" height="334" viewBox="0 0 176 334" fill="none" xmlns="http://www.w3.org/2000/svg">
<path d="M140.507 210.457C143.008 213.546 143.143 217.56 140.812 219.429C138.481 221.298 134.562 220.309 132.061 217.22C129.56 214.131 129.425 210.117 131.756 208.248C134.087 206.378 138.006 207.368 140.507 210.457ZM133.392 223.047C135.947 225.13 136.732 228.375 135.148 230.283C133.564 232.191 130.208 232.051 127.661 229.965C125.114 227.879 124.312 224.641 125.896 222.733C127.48 220.825 130.837 220.964 133.384 223.05L133.392 223.047ZM137.078 240.683C137.029 227.437 143.582 221.61 146.981 220.335C150.38 219.06 159.149 219.141 167.822 229.152C168.418 229.839 168.871 230.645 169.192 231.501L169.241 231.633C170.037 233.756 168.963 236.121 166.839 236.917C165.893 237.272 164.912 237.509 163.912 237.621L155.991 238.527C154.615 238.686 153.298 239.18 152.156 239.965L145.593 244.492C144.766 245.065 143.871 245.532 142.925 245.887C140.802 246.683 138.437 245.608 137.641 243.485L137.591 243.353C137.27 242.497 137.081 241.592 137.078 240.683ZM162.437 220.048C159.989 219.652 158.446 216.692 159.002 213.442C159.557 210.193 161.986 207.883 164.434 208.279C166.882 208.675 168.424 211.635 167.869 214.885C167.314 218.135 164.885 220.444 162.437 220.048ZM150.374 215.843C147.389 215.967 144.851 212.854 144.704 208.883C144.557 204.911 146.859 201.588 149.844 201.464C152.829 201.339 155.367 204.452 155.514 208.423C155.662 212.395 153.359 215.718 150.374 215.843Z" fill="#542D00"/>
<path d="M108.507 294.457C111.008 297.546 111.143 301.56 108.812 303.429C106.481 305.298 102.562 304.309 100.061 301.22C97.5598 298.131 97.4249 294.117 99.7558 292.248C102.087 290.378 106.006 291.368 108.507 294.457ZM101.392 307.047C103.947 309.13 104.732 312.375 103.148 314.283C101.564 316.191 98.2077 316.051 95.6606 313.965C93.1135 311.879 92.312 308.641 93.8961 306.733C95.4802 304.825 98.8368 304.964 101.384 307.05L101.392 307.047ZM105.078 324.683C105.029 311.437 111.582 305.61 114.981 304.335C118.38 303.06 127.149 303.141 135.822 313.152C136.418 313.839 136.871 314.645 137.192 315.501L137.241 315.633C138.037 317.756 136.963 320.121 134.839 320.917C133.893 321.272 132.912 321.509 131.912 321.621L123.991 322.527C122.615 322.686 121.298 323.18 120.156 323.965L113.593 328.492C112.766 329.065 111.871 329.532 110.925 329.887C108.802 330.683 106.437 329.608 105.641 327.485L105.591 327.353C105.27 326.497 105.081 325.592 105.078 324.683ZM130.437 304.048C127.989 303.652 126.446 300.692 127.002 297.442C127.557 294.193 129.986 291.883 132.434 292.279C134.882 292.675 136.424 295.635 135.869 298.885C135.314 302.135 132.885 304.444 130.437 304.048ZM118.374 299.843C115.389 299.967 112.851 296.854 112.704 292.883C112.557 288.911 114.859 285.588 117.844 285.464C120.829 285.339 123.367 288.452 123.514 292.423C123.662 296.395 121.359 299.718 118.374 299.843Z" fill="#542D00"/>
<path d="M60.5069 205.457C63.0078 208.546 63.1427 212.56 60.8118 214.429C58.4809 216.298 54.5616 215.309 52.0607 212.22C49.5598 209.131 49.4249 205.117 51.7558 203.248C54.0867 201.378 58.006 202.368 60.5069 205.457ZM53.3921 218.047C55.9475 220.13 56.7325 223.375 55.1484 225.283C53.5643 227.191 50.2077 227.051 47.6606 224.965C45.1135 222.879 44.312 219.641 45.8961 217.733C47.4802 215.825 50.8368 215.964 53.3839 218.05L53.3921 218.047ZM57.0777 235.683C57.0287 222.437 63.5822 216.61 66.9809 215.335C70.3796 214.06 79.1491 214.141 87.8224 224.152C88.418 224.839 88.8707 225.645 89.1917 226.501L89.2411 226.633C90.0374 228.756 88.9625 231.121 86.8393 231.917C85.893 232.272 84.9116 232.509 83.9118 232.621L75.991 233.527C74.6146 233.686 73.2979 234.18 72.1561 234.965L65.5933 239.492C64.7663 240.065 63.8714 240.532 62.925 240.887C60.8018 241.683 58.4368 240.608 57.6405 238.485L57.5912 238.353C57.2702 237.497 57.0808 236.592 57.0777 235.683ZM82.4368 215.048C79.9885 214.652 78.4464 211.692 79.0017 208.442C79.557 205.193 81.9856 202.883 84.4339 203.279C86.8822 203.675 88.4243 206.635 87.869 209.885C87.3137 213.135 84.8851 215.444 82.4368 215.048ZM70.3743 210.843C67.389 210.967 64.8511 207.854 64.7038 203.883C64.5565 199.911 66.8585 196.588 69.8438 196.464C72.829 196.339 75.3669 199.452 75.5142 203.423C75.6615 207.395 73.3595 210.718 70.3743 210.843Z" fill="#542D00"/>
<path d="M50.5069 14.4568C53.0078 17.5459 53.1427 21.5598 50.8118 23.429C48.4809 25.2982 44.5616 24.3088 42.0607 21.2198C39.5598 18.1308 39.4249 14.1169 41.7558 12.2477C44.0867 10.3784 48.006 11.3678 50.5069 14.4568ZM43.3921 27.0472C45.9475 29.1302 46.7325 32.3746 45.1484 34.2829C43.5643 36.1912 40.2077 36.0514 37.6606 33.9654C35.1135 31.8794 34.312 28.6411 35.8961 26.7328C37.4802 24.8245 40.8368 24.9643 43.3839 27.0503L43.3921 27.0472ZM47.0777 44.6828C47.0287 31.4375 53.5822 25.6097 56.9809 24.335C60.3796 23.0603 69.1491 23.1411 77.8224 33.1518C78.418 33.8389 78.8707 34.6454 79.1917 35.5012L79.2411 35.6329C80.0374 37.7561 78.9625 40.1211 76.8393 40.9174C75.893 41.2723 74.9116 41.5089 73.9118 41.6211L65.991 42.5268C64.6146 42.6863 63.2979 43.1801 62.1561 43.965L55.5933 48.4916C54.7663 49.0646 53.8714 49.5316 52.925 49.8866C50.8018 50.6829 48.4368 49.608 47.6405 47.4849L47.5912 47.3532C47.2702 46.4974 47.0808 45.5921 47.0777 44.6828ZM72.4368 24.0482C69.9885 23.6523 68.4464 20.6918 69.0017 17.4422C69.557 14.1926 71.9856 11.8831 74.4339 12.279C76.8822 12.6749 78.4243 15.6354 77.869 18.885C77.3137 22.1346 74.8851 24.4441 72.4368 24.0482ZM60.3743 19.8425C57.389 19.9672 54.8511 16.8545 54.7038 12.8828C54.5565 8.91102 56.8585 5.58827 59.8438 5.46365C62.829 5.33903 65.3669 8.4517 65.5142 12.4234C65.6615 16.3952 63.3595 19.7179 60.3743 19.8425Z" fill="#542D00"/>
<path d="M98.5069 116.457C101.008 119.546 101.143 123.56 98.8118 125.429C96.4809 127.298 92.5616 126.309 90.0607 123.22C87.5598 120.131 87.4249 116.117 89.7558 114.248C92.0867 112.378 96.006 113.368 98.5069 116.457ZM91.3921 129.047C93.9475 131.13 94.7325 134.375 93.1484 136.283C91.5643 138.191 88.2077 138.051 85.6606 135.965C83.1135 133.879 82.312 130.641 83.8961 128.733C85.4802 126.825 88.8368 126.964 91.3839 129.05L91.3921 129.047ZM95.0777 146.683C95.0287 133.437 101.582 127.61 104.981 126.335C108.38 125.06 117.149 125.141 125.822 135.152C126.418 135.839 126.871 136.645 127.192 137.501L127.241 137.633C128.037 139.756 126.963 142.121 124.839 142.917C123.893 143.272 122.912 143.509 121.912 143.621L113.991 144.527C112.615 144.686 111.298 145.18 110.156 145.965L103.593 150.492C102.766 151.065 101.871 151.532 100.925 151.887C98.8018 152.683 96.4368 151.608 95.6405 149.485L95.5912 149.353C95.2702 148.497 95.0808 147.592 95.0777 146.683ZM120.437 126.048C117.989 125.652 116.446 122.692 117.002 119.442C117.557 116.193 119.986 113.883 122.434 114.279C124.882 114.675 126.424 117.635 125.869 120.885C125.314 124.135 122.885 126.444 120.437 126.048ZM108.374 121.843C105.389 121.967 102.851 118.854 102.704 114.883C102.557 110.911 104.859 107.588 107.844 107.464C110.829 107.339 113.367 110.452 113.514 114.423C113.662 118.395 111.359 121.718 108.374 121.843Z" fill="#542D00"/>
<path d="M20.5069 103.457C23.0078 106.546 23.1427 110.56 20.8118 112.429C18.4809 114.298 14.5616 113.309 12.0607 110.22C9.55982 107.131 9.42487 103.117 11.7558 101.248C14.0867 99.3784 18.006 100.368 20.5069 103.457ZM13.3921 116.047C15.9475 118.13 16.7325 121.375 15.1484 123.283C13.5643 125.191 10.2077 125.051 7.66063 122.965C5.11351 120.879 4.31201 117.641 5.89608 115.733C7.48016 113.825 10.8368 113.964 13.3839 116.05L13.3921 116.047ZM17.0777 133.683C17.0287 120.437 23.5822 114.61 26.9809 113.335C30.3796 112.06 39.1491 112.141 47.8224 122.152C48.418 122.839 48.8707 123.645 49.1917 124.501L49.2411 124.633C50.0374 126.756 48.9625 129.121 46.8393 129.917C45.893 130.272 44.9116 130.509 43.9118 130.621L35.991 131.527C34.6146 131.686 33.2979 132.18 32.1561 132.965L25.5933 137.492C24.7663 138.065 23.8714 138.532 22.925 138.887C20.8018 139.683 18.4368 138.608 17.6405 136.485L17.5912 136.353C17.2702 135.497 17.0808 134.592 17.0777 133.683ZM42.4368 113.048C39.9885 112.652 38.4464 109.692 39.0017 106.442C39.557 103.193 41.9856 100.883 44.4339 101.279C46.8822 101.675 48.4243 104.635 47.869 107.885C47.3137 111.135 44.8851 113.444 42.4368 113.048ZM30.3743 108.843C27.389 108.967 24.8511 105.854 24.7038 101.883C24.5565 97.911 26.8585 94.5883 29.8438 94.4636C32.829 94.339 35.3669 97.4517 35.5142 101.423C35.6615 105.395 33.3595 108.718 30.3743 108.843Z" fill="#542D00"/>
</svg>
