<svg width="85" height="143" viewBox="0 0 85 143" fill="none" xmlns="http://www.w3.org/2000/svg">
<path d="M14.3378 51.9712C16.005 54.0306 16.095 56.7065 14.541 57.9527C12.9871 59.1988 10.3742 58.5392 8.70697 56.4799C7.03972 54.4205 6.94975 51.7446 8.50368 50.4984C10.0576 49.2523 12.6705 49.9119 14.3378 51.9712ZM9.59457 60.3648C11.2981 61.7535 11.8215 63.9164 10.7655 65.1886C9.7094 66.4608 7.47167 66.3676 5.77359 64.9769C4.07551 63.5862 3.54118 61.4274 4.59723 60.1552C5.65328 58.883 7.89101 58.9762 9.58909 60.3669L9.59457 60.3648ZM12.0516 72.1219C12.019 63.2916 16.3879 59.4064 18.6537 58.5566C20.9195 57.7068 26.7659 57.7607 32.5481 64.4345C32.9452 64.8926 33.247 65.4303 33.461 66.0008L33.4939 66.0886C34.0247 67.504 33.3082 69.0807 31.8927 69.6116C31.2618 69.8482 30.6076 70.006 29.941 70.0807L24.6605 70.6845C23.7429 70.7908 22.8651 71.1201 22.1039 71.6434L17.7287 74.661C17.1774 75.0431 16.5807 75.3544 15.9498 75.5911C14.5344 76.1219 12.9577 75.4054 12.4269 73.9899L12.3939 73.9021C12.1799 73.3316 12.0537 72.7281 12.0516 72.1219ZM28.9577 58.3655C27.3255 58.1015 26.2974 56.1279 26.6676 53.9615C27.0379 51.795 28.6569 50.2554 30.2891 50.5193C31.9213 50.7833 32.9494 52.7569 32.5792 54.9233C32.209 57.0898 30.5899 58.6294 28.9577 58.3655ZM20.916 55.5617C18.9259 55.6448 17.2339 53.5697 17.1357 50.9218C17.0375 48.274 18.5722 46.0588 20.5624 45.9758C22.5525 45.8927 24.2444 47.9678 24.3426 50.6156C24.4408 53.2634 22.9062 55.4786 20.916 55.5617Z" fill="#542D00"/>
<path d="M25.3378 116.971C27.005 119.031 27.095 121.707 25.541 122.953C23.9871 124.199 21.3742 123.539 19.707 121.48C18.0397 119.421 17.9497 116.745 19.5037 115.498C21.0576 114.252 23.6705 114.912 25.3378 116.971ZM20.5946 125.365C22.2981 126.753 22.8215 128.916 21.7655 130.189C20.7094 131.461 18.4717 131.368 16.7736 129.977C15.0755 128.586 14.5412 126.427 15.5972 125.155C16.6533 123.883 18.891 123.976 20.5891 125.367L20.5946 125.365ZM23.0516 137.122C23.019 128.292 27.3879 124.406 29.6537 123.557C31.9195 122.707 37.7659 122.761 43.5481 129.435C43.9452 129.893 44.247 130.43 44.461 131.001L44.4939 131.089C45.0247 132.504 44.3082 134.081 42.8927 134.612C42.2618 134.848 41.6076 135.006 40.941 135.081L35.6605 135.685C34.7429 135.791 33.8651 136.12 33.1039 136.643L28.7287 139.661C28.1774 140.043 27.5807 140.354 26.9498 140.591C25.5344 141.122 23.9577 140.405 23.4269 138.99L23.3939 138.902C23.1799 138.332 23.0537 137.728 23.0516 137.122ZM39.9577 123.365C38.3255 123.102 37.2974 121.128 37.6676 118.961C38.0379 116.795 39.6569 115.255 41.2891 115.519C42.9213 115.783 43.9494 117.757 43.5792 119.923C43.209 122.09 41.5899 123.629 39.9577 123.365ZM31.916 120.562C29.9259 120.645 28.2339 118.57 28.1357 115.922C28.0375 113.274 29.5722 111.059 31.5624 110.976C33.5525 110.893 35.2444 112.968 35.3426 115.616C35.4408 118.263 33.9062 120.479 31.916 120.562Z" fill="#542D00"/>
<path d="M61.3378 67.9712C63.005 70.0306 63.095 72.7065 61.541 73.9527C59.9871 75.1988 57.3742 74.5392 55.707 72.4799C54.0397 70.4205 53.9497 67.7446 55.5037 66.4984C57.0576 65.2523 59.6705 65.9119 61.3378 67.9712ZM56.5946 76.3648C58.2981 77.7535 58.8215 79.9164 57.7655 81.1886C56.7094 82.4608 54.4717 82.3676 52.7736 80.9769C51.0755 79.5862 50.5412 77.4274 51.5972 76.1552C52.6533 74.883 54.891 74.9762 56.5891 76.3669L56.5946 76.3648ZM59.0516 88.1219C59.019 79.2916 63.3879 75.4064 65.6537 74.5566C67.9195 73.7068 73.7659 73.7607 79.5481 80.4345C79.9452 80.8926 80.247 81.4303 80.461 82.0008L80.4939 82.0886C81.0248 83.504 80.3082 85.0807 78.8927 85.6116C78.2618 85.8482 77.6076 86.006 76.941 86.0807L71.6605 86.6845C70.7429 86.7908 69.8651 87.1201 69.1039 87.6434L64.7287 90.661C64.1774 91.0431 63.5807 91.3544 62.9498 91.5911C61.5344 92.1219 59.9577 91.4054 59.4269 89.9899L59.3939 89.9021C59.1799 89.3316 59.0537 88.7281 59.0516 88.1219ZM75.9577 74.3655C74.3255 74.1015 73.2974 72.1279 73.6676 69.9615C74.0379 67.795 75.6569 66.2554 77.2891 66.5193C78.9213 66.7833 79.9494 68.7569 79.5792 70.9233C79.209 73.0898 77.5899 74.6294 75.9577 74.3655ZM67.916 71.5617C65.9259 71.6448 64.2339 69.5697 64.1357 66.9218C64.0375 64.274 65.5722 62.0588 67.5624 61.9758C69.5525 61.8927 71.2445 63.9678 71.3426 66.6156C71.4408 69.2634 69.9062 71.4786 67.916 71.5617Z" fill="#542D00"/>
<path d="M42.3378 9.97123C44.005 12.0306 44.095 14.7065 42.541 15.9527C40.9871 17.1988 38.3742 16.5392 36.707 14.4799C35.0397 12.4205 34.9497 9.7446 36.5037 8.49845C38.0576 7.25229 40.6705 7.91189 42.3378 9.97123ZM37.5946 18.3648C39.2981 19.7535 39.8215 21.9164 38.7655 23.1886C37.7094 24.4608 35.4717 24.3676 33.7736 22.9769C32.0755 21.5862 31.5412 19.4274 32.5972 18.1552C33.6533 16.883 35.891 16.9762 37.5891 18.3669L37.5946 18.3648ZM40.0516 30.1219C40.019 21.2916 44.3879 17.4064 46.6537 16.5566C48.9195 15.7068 54.7659 15.7607 60.5481 22.4345C60.9452 22.8926 61.247 23.4303 61.461 24.0008L61.4939 24.0886C62.0247 25.504 61.3082 27.0807 59.8927 27.6116C59.2618 27.8482 58.6076 28.006 57.941 28.0807L52.6605 28.6845C51.7429 28.7908 50.8651 29.1201 50.1039 29.6434L45.7287 32.661C45.1774 33.0431 44.5807 33.3544 43.9498 33.5911C42.5344 34.1219 40.9577 33.4054 40.4269 31.9899L40.3939 31.9021C40.1799 31.3316 40.0537 30.7281 40.0516 30.1219ZM56.9577 16.3655C55.3255 16.1015 54.2974 14.1279 54.6676 11.9615C55.0379 9.79504 56.6569 8.25537 58.2891 8.51932C59.9213 8.78327 60.9494 10.7569 60.5792 12.9233C60.209 15.0898 58.5899 16.6294 56.9577 16.3655ZM48.916 13.5617C46.9259 13.6448 45.2339 11.5697 45.1357 8.92184C45.0375 6.27401 46.5722 4.05884 48.5624 3.97577C50.5525 3.89269 52.2444 5.9678 52.3426 8.61562C52.4408 11.2634 50.9062 13.4786 48.916 13.5617Z" fill="#542D00"/>
</svg>
